HIERARCHY
ROOT mixamorig:Hips
{
	OFFSET 0.00 0.00 0.00
	CHANNELS 6 Xposition Yposition Zposition Zrotation Yrotation Xrotation
	JOINT mixamorig:Spine
	{
		OFFSET	0.0000	9.9235	-1.2273
		CHANNELS 3 Zrotation Yrotation Xrotation
		JOINT mixamorig:Spine1
		{
			OFFSET	-0.0001	11.6454	-1.4223
			CHANNELS 3 Zrotation Yrotation Xrotation
			JOINT mixamorig:Spine2
			{
				OFFSET	0.0001	13.3602	-1.6265
				CHANNELS 3 Zrotation Yrotation Xrotation
				JOINT mixamorig:Neck
				{
					OFFSET	0.0000	15.0325	0.7929
					CHANNELS 3 Zrotation Yrotation Xrotation
					JOINT mixamorig:Head
					{
						OFFSET	0.0000	10.3218	3.1424
						CHANNELS 3 Zrotation Yrotation Xrotation
						JOINT mixamorig:HeadTop_End
						{
							OFFSET	0.0002	18.4747	6.6364
							CHANNELS 3 Zrotation Yrotation Xrotation
							End Site
							{
								OFFSET 0.0000 0.0000 0.0000
							}
						}
						JOINT mixamorig:LeftEye
						{
							OFFSET	2.9479	7.6817	9.1207
							CHANNELS 3 Zrotation Yrotation Xrotation
							End Site
							{
								OFFSET 0.0000 0.0000 0.0000
							}
						}
						JOINT mixamorig:RightEye
						{
							OFFSET	-2.9445	7.6817	9.1205
							CHANNELS 3 Zrotation Yrotation Xrotation
							End Site
							{
								OFFSET 0.0000 0.0000 0.0000
							}
						}
					}
				}
				JOINT mixamorig:LeftShoulder
				{
					OFFSET	6.1058	9.1104	0.7056
					CHANNELS 3 Zrotation Yrotation Xrotation
					JOINT mixamorig:LeftArm
					{
						OFFSET	12.6532	-0.3431	-2.6009
						CHANNELS 3 Zrotation Yrotation Xrotation
						JOINT mixamorig:LeftForeArm
						{
							OFFSET	27.3517	-0.9645	-1.4034
							CHANNELS 3 Zrotation Yrotation Xrotation
							JOINT mixamorig:LeftHand
							{
								OFFSET	27.5619	-0.7072	1.5501
								CHANNELS 3 Zrotation Yrotation Xrotation
								JOINT mixamorig:LeftHandMiddle1
								{
									OFFSET	12.6631	-1.3962	0.9548
									CHANNELS 3 Zrotation Yrotation Xrotation
									JOINT mixamorig:LeftHandMiddle2
									{
										OFFSET	3.6093	-0.1669	0.0778
										CHANNELS 3 Zrotation Yrotation Xrotation
										JOINT mixamorig:LeftHandMiddle3
										{
											OFFSET	3.4005	-0.6274	0.1147
											CHANNELS 3 Zrotation Yrotation Xrotation
											End Site
											{
												OFFSET 3.6205 -0.6493 0.1199
											}
										}
									}
								}
								JOINT mixamorig:LeftHandThumb1
								{
									OFFSET	3.3268	-2.0475	3.5790
									CHANNELS 3 Zrotation Yrotation Xrotation
									JOINT mixamorig:LeftHandThumb2
									{
										OFFSET	3.4890	-1.4806	2.8548
										CHANNELS 3 Zrotation Yrotation Xrotation
										JOINT mixamorig:LeftHandThumb3
										{
											OFFSET	3.4086	-1.7658	2.1133
											CHANNELS 3 Zrotation Yrotation Xrotation
											End Site
											{
												OFFSET 2.7231 -1.1597 1.7902
											}
										}
									}
								}
								JOINT mixamorig:LeftHandIndex1
								{
									OFFSET	11.9722	-1.1061	3.7324
									CHANNELS 3 Zrotation Yrotation Xrotation
									JOINT mixamorig:LeftHandIndex2
									{
										OFFSET	3.8388	-0.6406	-0.0310
										CHANNELS 3 Zrotation Yrotation Xrotation
										JOINT mixamorig:LeftHandIndex3
										{
											OFFSET	3.3346	-0.7374	-0.0133
											CHANNELS 3 Zrotation Yrotation Xrotation
											End Site
											{
												OFFSET 2.9714 -0.8030 0.0009
											}
										}
									}
								}
								JOINT mixamorig:LeftHandRing1
								{
									OFFSET	12.1659	-1.6805	-1.2769
									CHANNELS 3 Zrotation Yrotation Xrotation
									JOINT mixamorig:LeftHandRing2
									{
										OFFSET	3.5926	-0.2366	-0.0771
										CHANNELS 3 Zrotation Yrotation Xrotation
										JOINT mixamorig:LeftHandRing3
										{
											OFFSET	3.2906	-0.3266	-0.0615
											CHANNELS 3 Zrotation Yrotation Xrotation
											End Site
											{
												OFFSET 3.5423 -0.9211 -0.0200
											}
										}
									}
								}
								JOINT mixamorig:LeftHandPinky1
								{
									OFFSET	11.0508	-2.1872	-3.8040
									CHANNELS 3 Zrotation Yrotation Xrotation
									JOINT mixamorig:LeftHandPinky2
									{
										OFFSET	4.1236	-0.3047	0.1212
										CHANNELS 3 Zrotation Yrotation Xrotation
										JOINT mixamorig:LeftHandPinky3
										{
											OFFSET	2.5805	-0.2597	0.0823
											CHANNELS 3 Zrotation Yrotation Xrotation
											End Site
											{
												OFFSET 2.9027 -0.3379 0.0963
											}
										}
									}
								}
							}
						}
					}
				}
				JOINT mixamorig:RightShoulder
				{
					OFFSET	-6.1057	9.1105	0.7056
					CHANNELS 3 Zrotation Yrotation Xrotation
					JOINT mixamorig:RightArm
					{
						OFFSET	-12.6532	-0.3429	-2.6009
						CHANNELS 3 Zrotation Yrotation Xrotation
						JOINT mixamorig:RightForeArm
						{
							OFFSET	-27.3517	-0.9641	-1.4034
							CHANNELS 3 Zrotation Yrotation Xrotation
							JOINT mixamorig:RightHand
							{
								OFFSET	-27.5619	-0.7068	1.5501
								CHANNELS 3 Zrotation Yrotation Xrotation
								JOINT mixamorig:RightHandMiddle1
								{
									OFFSET	-12.6631	-1.3960	0.9549
									CHANNELS 3 Zrotation Yrotation Xrotation
									JOINT mixamorig:RightHandMiddle2
									{
										OFFSET	-3.6093	-0.1669	0.0778
										CHANNELS 3 Zrotation Yrotation Xrotation
										JOINT mixamorig:RightHandMiddle3
										{
											OFFSET	-3.4005	-0.6273	0.1148
											CHANNELS 3 Zrotation Yrotation Xrotation
											End Site
											{
												OFFSET -3.6205 -0.6492 0.1199
											}
										}
									}
								}
								JOINT mixamorig:RightHandThumb1
								{
									OFFSET	-3.3269	-2.0474	3.5791
									CHANNELS 3 Zrotation Yrotation Xrotation
									JOINT mixamorig:RightHandThumb2
									{
										OFFSET	-3.4890	-1.4805	2.8548
										CHANNELS 3 Zrotation Yrotation Xrotation
										JOINT mixamorig:RightHandThumb3
										{
											OFFSET	-3.4086	-1.7658	2.1133
											CHANNELS 3 Zrotation Yrotation Xrotation
											End Site
											{
												OFFSET -2.7231 -1.1596 1.7902
											}
										}
									}
								}
								JOINT mixamorig:RightHandIndex1
								{
									OFFSET	-11.9722	-1.1059	3.7325
									CHANNELS 3 Zrotation Yrotation Xrotation
									JOINT mixamorig:RightHandIndex2
									{
										OFFSET	-3.8388	-0.6406	-0.0310
										CHANNELS 3 Zrotation Yrotation Xrotation
										JOINT mixamorig:RightHandIndex3
										{
											OFFSET	-3.3346	-0.7373	-0.0133
											CHANNELS 3 Zrotation Yrotation Xrotation
											End Site
											{
												OFFSET -2.9714 -0.8029 0.0009
											}
										}
									}
								}
								JOINT mixamorig:RightHandRing1
								{
									OFFSET	-12.1659	-1.6803	-1.2769
									CHANNELS 3 Zrotation Yrotation Xrotation
									JOINT mixamorig:RightHandRing2
									{
										OFFSET	-3.5926	-0.2366	-0.0771
										CHANNELS 3 Zrotation Yrotation Xrotation
										JOINT mixamorig:RightHandRing3
										{
											OFFSET	-3.2906	-0.3265	-0.0615
											CHANNELS 3 Zrotation Yrotation Xrotation
											End Site
											{
												OFFSET -3.5423 -0.9210 -0.0200
											}
										}
									}
								}
								JOINT mixamorig:RightHandPinky1
								{
									OFFSET	-11.0508	-2.1870	-3.8040
									CHANNELS 3 Zrotation Yrotation Xrotation
									JOINT mixamorig:RightHandPinky2
									{
										OFFSET	-4.1236	-0.3046	0.1212
										CHANNELS 3 Zrotation Yrotation Xrotation
										JOINT mixamorig:RightHandPinky3
										{
											OFFSET	-2.5805	-0.2597	0.0823
											CHANNELS 3 Zrotation Yrotation Xrotation
											End Site
											{
												OFFSET -2.9027 -0.3379 0.0963
											}
										}
									}
								}
							}
						}
					}
				}
			}
		}
	}
	JOINT mixamorig:RightUpLeg
	{
		OFFSET	-9.1245	-6.6564	-0.0554
		CHANNELS 3 Zrotation Yrotation Xrotation
		JOINT mixamorig:RightLeg
		{
			OFFSET	-0.0000	-40.5610	-1.7663
			CHANNELS 3 Zrotation Yrotation Xrotation
			JOINT mixamorig:RightFoot
			{
				OFFSET	0.4978	-41.9625	-3.3512
				CHANNELS 3 Zrotation Yrotation Xrotation
				JOINT mixamorig:RightToeBase
				{
					OFFSET	-0.3734	-10.4922	12.6407
					CHANNELS 3 Zrotation Yrotation Xrotation
					End Site
					{
						OFFSET 0.0000 -0.0000 9.9925
					}
				}
			}
		}
	}
	JOINT mixamorig:LeftUpLeg
	{
		OFFSET	9.1245	-6.6564	-0.0554
		CHANNELS 3 Zrotation Yrotation Xrotation
		JOINT mixamorig:LeftLeg
		{
			OFFSET	0.0000	-40.5610	-1.7663
			CHANNELS 3 Zrotation Yrotation Xrotation
			JOINT mixamorig:LeftFoot
			{
				OFFSET	-0.4978	-41.9625	-3.3512
				CHANNELS 3 Zrotation Yrotation Xrotation
				JOINT mixamorig:LeftToeBase
				{
					OFFSET	0.3734	-10.4922	12.6407
					CHANNELS 3 Zrotation Yrotation Xrotation
					End Site
					{
						OFFSET -0.0000 -0.0000 9.9925
					}
				}
			}
		}
	}
}
MOTION
Frames: 6
Frame Time: 0.0333333
26.2376 76.2709 315.5276 0.2109 8.9046 -7.2062 3.2256 3.0595 24.8821 -0.0401 0.9492 2.8943 -0.0649 0.9345 2.9013 1.3154 -1.5531 -4.9589 2.3009 -13.6236 -42.8824 0.0000 -0.0000 0.0000 0.0000 -0.0000 0.0000 0.0000 -0.0000 0.0000 -3.4851 -1.6305 0.5974 -74.7573 22.1095 3.3291 -1.9321 -55.9682 -19.3147 12.6196 2.2829 3.2937 -68.0730 0.5726 5.1519 -73.0715 -2.2429 3.4493 -70.6917 -2.3597 3.5042 0.6489 -8.8822 26.3680 1.6631 11.7235 15.9577 18.8070 -7.1205 -19.7162 -37.9938 -0.8356 3.1881 -68.4530 -3.2557 0.9832 -59.3101 -2.8685 0.7087 -93.5474 -16.4904 5.2006 -87.8749 -4.4605 1.5863 -66.2084 -3.4680 0.6489 -91.9280 0.2132 -2.5429 -92.5906 -1.8226 4.9639 -77.5634 -2.1175 4.1055 7.1169 -2.0625 0.2141 76.1709 -23.6734 -22.2416 -21.8571 45.8644 -59.5465 -59.1943 -10.7813 9.2745 60.1091 5.4697 -1.9515 71.7787 3.5814 4.1226 65.5958 3.5498 3.6754 -22.3500 -10.4554 26.6628 6.3059 -2.1373 13.9112 -21.7778 -36.1994 -5.6705 55.7917 -0.0029 3.2118 75.6400 4.8325 1.9807 68.2905 4.4958 1.5448 86.5707 16.8839 4.3864 83.8597 5.6367 2.3617 58.2918 4.3466 0.7878 104.4452 15.7177 7.2145 81.6640 3.3495 5.2350 57.8978 3.2321 3.2982 -32.4104 -14.4798 -23.2205 1.2376 -1.4001 74.0642 14.3958 2.9713 -31.0522 1.8865 -0.0992 -2.4657 33.5341 19.1107 -33.5657 -15.3062 -3.4250 64.3688 -22.5630 -1.3035 -15.2330 1.6493 -6.7256 -1.0170 
27.3825 76.1990 315.3275 4.5018 9.4557 -7.3232 0.5796 0.5990 26.1565 -1.1367 0.3943 3.0849 -1.1641 0.4448 3.0832 0.5283 -1.3754 -5.6470 2.9419 -12.1166 -42.8514 0.0000 -0.0000 0.0000 0.0000 -0.0000 0.0000 0.0000 -0.0000 0.0000 -5.9911 -0.9089 0.6147 -71.8514 16.8038 -4.8391 -2.3357 -45.0551 -22.6279 21.0549 -1.5024 1.8900 -58.8297 -0.1308 4.2081 -71.6288 -2.2430 3.3600 -69.2488 -2.3611 3.4124 0.4297 -12.2097 40.2143 2.6689 15.2165 11.9896 13.6546 -8.8513 -18.1798 -30.2049 -0.1575 3.0545 -62.8107 -3.0516 0.7591 -53.6707 -2.6366 0.5150 -86.1990 -16.7045 4.7654 -87.2955 -4.4448 1.5553 -65.6300 -3.4424 0.6257 -81.0503 1.4752 -2.9371 -91.6795 -1.8474 4.9111 -76.6518 -2.1285 4.0478 4.4178 -2.9547 0.0616 78.3978 -23.6180 -14.3445 -14.0316 47.7340 -48.8816 -48.6362 -17.5808 13.6278 50.7555 5.9203 -3.1374 70.3342 3.5683 4.0053 64.1515 3.5256 3.5593 -25.6721 -2.1916 37.9217 4.5110 -5.0204 9.6171 -17.8444 -33.8731 -4.1511 48.0226 -0.7176 2.7478 69.9884 4.6055 1.6272 62.6434 4.2265 1.2229 79.1768 17.0186 3.7694 83.2794 5.6167 2.3199 57.7134 4.3107 0.7587 93.3312 14.5942 6.2793 80.7514 3.3595 5.1599 56.9856 3.2113 3.2253 -37.5184 -12.4382 -23.0083 -0.6337 -1.5923 74.5168 14.7616 3.0174 -30.7535 1.7266 -0.5088 -2.5415 28.4732 19.7093 -32.7791 -16.2069 -3.4039 64.7630 -21.4796 -1.3722 -16.2042 2.8305 -7.4788 -0.3648 
28.3454 76.3634 315.2622 8.4279 9.9781 -7.0121 -1.8344 -1.7005 26.8105 -2.3234 -0.0775 3.1321 -2.3575 0.0513 3.1269 -0.0064 -1.2861 -6.2538 3.7294 -10.8428 -42.3122 0.0000 -0.0000 0.0000 0.0000 -0.0000 0.0000 0.0000 -0.0000 0.0000 -9.2333 0.2499 0.5503 -65.0284 8.3169 -12.3048 -3.2861 -28.5038 -35.1853 39.1237 -7.5733 -2.5035 -51.6083 -0.8371 3.3684 -70.3597 -2.2412 3.2814 -67.9797 -2.3604 3.3316 -2.0547 -12.7187 52.2058 2.3556 13.9065 13.4512 13.0138 -9.0489 -17.9725 -22.7726 0.1836 2.7179 -55.4274 -2.7531 0.4981 -46.2913 -2.3065 0.2975 -79.2783 -16.8425 4.3343 -86.9558 -4.4354 1.5372 -65.2909 -3.4273 0.6122 -72.0620 1.3201 -3.4979 -91.3483 -1.8562 4.8918 -76.3205 -2.1323 4.0268 2.9613 -2.9447 0.0469 78.1979 -25.3724 -6.6639 -2.6524 51.7569 -36.3510 -30.1997 -25.5235 15.4989 43.4361 6.3969 -4.1717 69.0636 3.5544 3.9024 62.8811 3.5018 3.4577 -25.1051 2.9269 48.2334 5.1163 -3.9285 11.1943 -17.3765 -33.1844 -4.1116 40.6099 -1.0580 2.2172 62.5952 4.2580 1.2016 55.2566 3.8287 0.8446 72.2174 17.0624 3.1804 82.9392 5.6048 2.2955 57.3743 4.2895 0.7418 84.1584 14.8499 5.5483 80.4198 3.3628 5.1326 56.6540 3.2035 3.1988 -41.9458 -10.7761 -22.6388 -1.9951 -1.5912 74.1307 15.4204 3.1249 -30.4173 0.9078 -1.2345 -2.0608 24.0592 20.3215 -31.9505 -17.3532 -3.3566 64.3700 -20.4664 -1.2647 -16.3400 3.6294 -8.4005 -0.0355 
28.8381 76.4721 315.3622 10.8175 9.3843 -6.5177 -3.2615 -2.4634 26.5386 -3.2086 -0.1559 3.0517 -3.2556 0.0349 3.0411 -0.3042 -1.3094 -6.4738 4.4624 -10.1220 -41.6005 0.0000 -0.0000 0.0000 0.0000 -0.0000 0.0000 0.0000 -0.0000 0.0000 -11.9045 1.1921 0.4550 -56.3371 0.8005 -17.4073 -4.5259 -14.0574 -57.0441 53.2982 -14.9718 -9.2299 -50.5012 -0.9179 3.2571 -70.3498 -2.2411 3.2808 -67.9697 -2.3604 3.3310 -2.9471 -11.4521 57.8828 2.1596 12.8736 14.5626 15.1875 -8.3533 -18.6511 -20.8555 0.2627 2.6288 -54.1999 -2.7003 0.4586 -45.0644 -2.2489 0.2655 -77.6537 -16.8728 4.2291 -87.0779 -4.4388 1.5437 -65.4128 -3.4328 0.6170 -70.5254 1.0039 -3.6403 -91.6363 -1.8485 4.9086 -76.6087 -2.1290 4.0451 2.2799 -2.2743 0.0968 77.4113 -28.8465 -1.6365 10.4216 58.2899 -23.3880 -16.0183 -29.9467 14.4597 42.3161 6.4438 -4.3082 69.0537 3.5543 3.9016 62.8712 3.5017 3.4569 -24.4185 3.7941 53.6912 5.5402 -3.0542 12.3926 -19.0650 -33.4678 -5.0206 38.6977 -1.1394 2.0817 61.3663 4.1950 1.1354 54.0287 3.7579 0.7868 70.5841 17.0679 3.0382 83.0614 5.6091 2.3043 57.4962 4.2971 0.7479 82.5916 15.1834 5.4395 80.7083 3.3599 5.1564 56.9424 3.2103 3.2218 -44.2901 -8.8895 -23.1901 -2.6176 -1.5957 73.7645 16.4418 3.3293 -30.2335 0.8345 -1.8335 -1.6050 22.6388 21.3048 -30.5952 -19.1029 -2.5201 63.4465 -19.6699 -1.1474 -16.4012 4.8605 -9.4635 -0.2279 
28.8894 76.5166 315.5442 11.3541 8.0574 -6.3361 -3.6203 -2.1450 25.8884 -3.5433 -0.0252 2.9949 -3.5985 0.1849 2.9779 -0.4998 -1.3236 -6.3449 4.8028 -9.5581 -41.6148 0.0000 -0.0000 0.0000 0.0000 -0.0000 0.0000 0.0000 -0.0000 0.0000 -12.7670 1.0893 0.4970 -52.3752 0.5034 -19.4312 -5.2851 -13.1361 -71.3806 60.1969 -19.3639 -14.2997 -51.1529 -0.8636 3.3333 -70.4997 -2.2414 3.2901 -68.1197 -2.3606 3.3405 -1.8717 -8.4590 59.0105 2.1215 12.7512 14.7010 16.8575 -7.8039 -19.1608 -20.5074 0.2924 2.6202 -55.8708 -2.7720 0.5127 -46.7344 -2.3271 0.3093 -77.8119 -16.8717 4.2378 -87.2850 -4.4445 1.5547 -65.6196 -3.4419 0.6253 -70.9419 0.9154 -3.6277 -92.0745 -1.8368 4.9340 -77.0470 -2.1238 4.0729 1.1510 -1.6726 0.1454 77.5960 -32.7097 -0.2978 23.6893 65.5356 -11.7581 -11.7826 -31.0052 13.6777 42.9764 6.4109 -4.2165 69.2038 3.5561 3.9137 63.0213 3.5046 3.4689 -24.8716 0.9118 55.9692 5.6059 -2.9534 12.5429 -20.3893 -33.5825 -5.7462 38.3508 -1.1706 2.0611 63.0391 4.2804 1.2259 55.7001 3.8539 0.8658 70.7431 17.0693 3.0482 83.2689 5.6163 2.3192 57.7030 4.3100 0.7582 83.0180 15.2688 5.4805 81.1471 3.3553 5.1925 57.3811 3.2204 3.2569 -45.0744 -7.3836 -24.0747 -2.0097 -2.3784 73.6211 16.5311 3.3645 -30.2962 0.9063 -1.8511 -1.2528 23.9243 22.1283 -28.9800 -20.6661 -1.2725 62.4958 -19.5712 -1.1062 -16.4612 6.2737 -10.1704 -0.5364 
28.6459 76.5931 315.6562 10.1774 6.9108 -6.8065 -3.1960 -1.8195 25.6431 -3.3128 0.0244 3.0550 -3.3646 0.2127 3.0394 -0.4034 -1.2498 -6.1563 4.4033 -8.9276 -42.4946 0.0000 -0.0000 0.0000 0.0000 -0.0000 0.0000 0.0000 -0.0000 0.0000 -12.2042 0.1029 0.6581 -54.8391 5.6909 -18.6928 -5.2516 -22.2158 -65.2645 63.9699 -17.7042 -14.3289 -50.8878 -0.8757 3.3098 -70.2392 -2.2409 3.2740 -67.8591 -2.3603 3.3239 -0.0280 -6.1151 57.0632 1.8779 11.8381 15.7193 16.9278 -7.7721 -19.1770 -19.9911 0.2971 2.5770 -55.8781 -2.7723 0.5129 -46.7417 -2.3274 0.3095 -76.9261 -16.8842 4.1806 -87.4606 -4.4493 1.5641 -65.7949 -3.4498 0.6323 -69.5669 0.5562 -3.7697 -92.2661 -1.8316 4.9451 -77.2387 -2.1215 4.0850 -0.0462 -1.5428 0.1612 77.9465 -34.6975 -0.9500 29.5192 71.3453 -9.9832 -11.0974 -30.8570 13.4741 42.7087 6.4152 -4.2453 68.9429 3.5530 3.8926 62.7605 3.4995 3.4481 -25.7353 -2.6935 55.0505 6.0552 -2.1938 13.6448 -20.4811 -33.1308 -5.9417 37.8356 -1.1701 2.0148 63.0464 4.2808 1.2263 55.7074 3.8543 0.8662 69.8528 17.0681 2.9708 83.4448 5.6224 2.3318 57.8782 4.3209 0.7669 81.6172 15.6441 5.3881 81.3390 3.3532 5.2083 57.5729 3.2248 3.2722 -44.6787 -7.7016 -24.1736 0.3966 -3.2752 73.2551 15.3342 3.1139 -30.3459 0.6282 -1.3742 -1.0984 26.3730 22.0528 -27.7741 -20.6605 -0.5591 62.1400 -20.6646 -1.2240 -16.5603 6.5568 -10.2156 -0.6868 
